<?xml version="1.0" encoding="UTF-8"?>
<svg enable-background="new 0 0 24 24" fill="#000000" version="1.1" viewBox="0 0 24 24" xmlns="http://www.w3.org/2000/svg">
 <defs>
  <filter id="filter955" x="-.075" y="-.065030289" width="1.2125" height="1.1842525" color-interpolation-filters="sRGB">
   <feFlood flood-color="rgb(0,0,0)" flood-opacity=".498039" result="flood"/>
   <feComposite in="flood" in2="SourceGraphic" operator="in" result="composite1"/>
   <feGaussianBlur in="composite1" result="blur" stdDeviation="0.5"/>
   <feOffset dx="1" dy="1" result="offset"/>
   <feComposite in="SourceGraphic" in2="offset" result="composite2"/>
  </filter>
 </defs>
 <circle cx="12" cy="12" r="12" fill="#fff" stroke-linecap="round" stroke-linejoin="round" stroke-width="5.1381"/>
 <path d="M0,0h24v24H0V0z" fill="none"/>
 <g filter="url(#filter955)">
  <path d="m4 10c0 0.55 0.45 1 1 1h14c0.55 0 1-0.45 1-1s-0.45-1-1-1h-14c-0.55 0-1 0.45-1 1z"/>
  <path d="m18.166004 6.4005805-1.550185-0.895 1-1.7320508c0.275-0.476314 0.110288-1.0910254-0.366026-1.3660254s-1.091025-0.1102886-1.366025 0.3660254l-1 1.7320508-1.550185-0.895c-0.389712-0.225-0.850237 0.1326537-0.73677 0.5561216l1.021211 3.8112108c0.0732 0.2732051 0.341673 0.4282051 0.614878 0.355l3.811211-1.0212108c0.432128-0.1084679 0.511603-0.6861216 0.121891-0.9111216z"/>
  <path d="m5.8335825 16.600962 1.5501855 0.895-1 1.73205c-0.275 0.476314-0.1102886 1.091026 0.3660254 1.366026s1.0910254 0.110288 1.3660254-0.366026l1-1.73205 1.5501852 0.895c0.389712 0.225 0.850237-0.132654 0.728109-0.561122l-1.021211-3.811211c-0.0732-0.273205-0.341673-0.428205-0.6148777-0.355l-3.8112109 1.021211c-0.4234679 0.113468-0.5029423 0.691122-0.1132309 0.916122z"/>
  <path d="m5 14h14c0.55 0 1-0.45 1-1s-0.45-1-1-1h-14c-0.55 0-1 0.45-1 1s0.45 1 1 1z"/>
 </g>
</svg>
